<svg width="56" height="56" viewBox="0 0 56 56" fill="none" xmlns="http://www.w3.org/2000/svg">
<path d="M53.8726 9.20551C53.5014 7.16993 52.5714 5.27719 51.1829 3.73072C51.1802 3.72773 51.1776 3.72461 51.1749 3.72162C50.4637 2.91856 49.2851 1.81447 47.7097 1.11483L47.6738 1.09893C46.1533 0.369661 44.5216 0 42.8243 0C40.3142 0 37.9399 0.810265 35.9581 2.34341C35.9562 2.3449 35.9473 2.35197 35.9448 2.35374C34.2411 3.68411 33.1168 5.58515 32.9776 5.82733C32.9713 5.83793 32.9652 5.84866 32.9594 5.8594C32.0655 7.49814 31.5931 9.35569 31.5931 11.2313C31.5931 11.6208 31.6135 12.0151 31.654 12.4029C31.6917 12.7654 31.9086 13.0848 32.2313 13.2537C32.4357 13.3607 32.6494 13.4497 32.8689 13.5201C33.7438 16.1982 35.6548 18.3401 38.0842 19.5446C37.0428 20.0765 36.1075 20.7799 35.2984 21.64C34.8871 22.0773 34.9081 22.7654 35.3456 23.1768C35.7829 23.5881 36.471 23.567 36.8824 23.1296C37.2712 22.7162 37.6968 22.349 38.1557 22.0304C38.8139 23.8952 40.5103 25.2613 42.4397 25.2613H42.602C44.5347 25.2613 46.2294 23.7972 46.8487 21.8161C49.1446 23.2554 50.6134 25.8196 50.6134 28.5626V39.8561L40.7245 46.2729C40.2207 46.5997 40.0773 47.273 40.4043 47.7767C40.6125 48.0975 40.9613 48.2722 41.3173 48.2722C41.5202 48.2722 41.7253 48.2155 41.908 48.0969L52.2924 41.3587C52.6013 41.1582 52.7879 40.8149 52.7879 40.4466V28.5626C52.7879 24.7123 50.6384 21.2611 47.2414 19.539C50.4584 17.9335 52.7333 14.6929 52.9562 10.9187C53.263 10.6405 53.5298 10.3137 53.7432 9.94606C53.8733 9.72263 53.9191 9.45993 53.8726 9.20551ZM42.6021 23.087H42.4398C41.1387 23.087 40.0394 21.8258 40.0394 20.3329C40.0394 20.3142 40.0389 20.2958 40.038 20.2773C40.881 20.4989 41.7628 20.6162 42.6669 20.6162C43.4397 20.6162 44.1938 20.5301 44.9192 20.3668C44.8341 21.8368 43.7879 23.087 42.6021 23.087ZM42.6668 18.4417C39.3884 18.4417 36.4815 16.4888 35.2081 13.5614C36.7177 13.1344 37.8725 11.8536 38.116 10.2762C38.7647 10.3595 39.4221 10.4015 40.0816 10.4015C42.2931 10.4015 44.4235 9.93791 46.3315 9.05018C46.8232 10.7388 48.385 11.9763 50.2303 11.9763C50.3649 11.9763 50.4986 11.9695 50.6311 11.9562C49.8645 15.6501 46.5748 18.4417 42.6668 18.4417ZM50.2303 9.802C49.1908 9.802 48.345 8.95654 48.345 7.91714V7.31209C48.345 6.91647 48.1302 6.55211 47.7839 6.36062C47.4375 6.16899 47.0145 6.18082 46.6797 6.39133C44.7665 7.59232 42.485 8.22714 40.0815 8.22714C39.1416 8.22714 38.2079 8.12806 37.3064 7.93263C36.9853 7.86291 36.6496 7.94242 36.3936 8.14885C36.1377 8.35529 35.9888 8.66638 35.9888 8.99513V9.65468C35.9888 10.6939 35.1432 11.5395 34.1038 11.5395C34.0326 11.5395 33.9622 11.5356 33.8926 11.5279C33.8765 11.5254 33.8603 11.5234 33.8441 11.5217C33.8198 11.5185 33.7957 11.5145 33.7717 11.5103C33.7688 11.4171 33.7673 11.3241 33.7673 11.2314C33.7673 9.7229 34.1458 8.22958 34.8621 6.91198C34.8649 6.90668 34.8679 6.90152 34.8702 6.89758C34.8795 6.88086 35.8615 5.17838 37.2813 4.06899C37.2842 4.06668 37.2878 4.06396 37.2885 4.06342C38.8859 2.82764 40.8002 2.17448 42.8243 2.17448C44.1936 2.17448 45.5088 2.47224 46.7335 3.05949C46.7547 3.06968 46.7861 3.08395 46.8271 3.10203C48.0363 3.63912 48.9646 4.50837 49.5341 5.14862C49.5403 5.15596 49.5467 5.16316 49.5532 5.1705C50.5793 6.30897 51.2964 7.68053 51.6426 9.15985C51.287 9.56267 50.7727 9.802 50.2303 9.802ZM33.4068 37.6196C35.8705 36.1699 37.5277 33.4899 37.5277 30.4306C37.5277 29.0539 37.192 27.7538 36.5985 26.6083C36.5772 26.5602 36.5529 26.5144 36.5257 26.4709C35.1142 23.8677 32.3567 22.096 29.1931 22.096C26.0288 22.096 23.2707 23.8683 21.8596 26.4726C21.8333 26.515 21.8095 26.5597 21.7887 26.6065C21.1944 27.7524 20.8586 29.0531 20.8586 30.4306C20.8586 33.4894 22.515 36.1688 24.978 37.6186C21.9292 39.1947 19.998 42.3232 19.998 45.7855V49.751C19.998 50.1227 20.1879 50.4685 20.5014 50.6682L28.6093 55.8298C28.7875 55.9432 28.9903 55.9999 29.1932 55.9999C29.3949 55.9999 29.5966 55.9439 29.7739 55.8317L37.901 50.6971C38.218 50.4969 38.4093 50.1477 38.4075 49.7728L38.3884 45.7804C38.3718 42.3099 36.4426 39.1917 33.4068 37.6196ZM29.1931 24.2704C31.0855 24.2704 32.7811 25.128 33.9121 26.4751C32.447 26.8949 30.8404 27.1138 29.1933 27.1138C27.5458 27.1138 25.9389 26.8949 24.474 26.4751C25.605 25.128 27.3007 24.2704 29.1931 24.2704ZM23.0329 30.4306C23.0329 29.7243 23.1524 29.0452 23.3722 28.4128C25.1663 28.9874 27.1572 29.2883 29.1933 29.2883C31.2289 29.2883 33.2195 28.9874 35.0139 28.4128C35.2338 29.0452 35.3532 29.7243 35.3532 30.4306C35.3532 33.8273 32.5899 36.5908 29.1931 36.5908C25.7964 36.5908 23.0329 33.8273 23.0329 30.4306ZM31.1229 38.5398C30.987 39.5683 30.0849 40.2636 29.2686 40.2636H29.1362C28.2718 40.2636 27.3117 39.5324 27.1874 38.5213C27.8299 38.6806 28.5018 38.7652 29.1929 38.7652C29.857 38.7652 30.5033 38.6871 31.1229 38.5398ZM29.1954 53.6253L22.1723 49.1543V45.7857C22.1723 43.395 23.3803 41.2121 25.3355 39.9256C26.0149 41.4758 27.6164 42.4381 29.1362 42.4381H29.2686C30.9094 42.4381 32.3598 41.3703 32.9863 39.8867C34.9698 41.1656 36.2022 43.3656 36.2138 45.7908L36.2301 49.1808L29.1954 53.6253ZM21.3859 24.4414C21.7028 23.9313 21.5462 23.2609 21.0363 22.944C20.7053 22.7382 20.362 22.5516 20.0097 22.3856C21.3532 21.6987 22.5417 20.7149 23.4852 19.4843C23.8737 19.6191 24.2908 19.6925 24.7246 19.6925C26.8139 19.6925 28.5137 17.9927 28.5137 15.9034V13.2015C28.5137 9.76694 27.2016 6.51406 24.8194 4.04235C22.4439 1.57786 19.2547 0.146234 15.8394 0.0111442C15.8392 0.0111442 15.8388 0.0111442 15.8385 0.0111442C15.5417 -0.000271809 15.2654 -0.00298991 14.9937 0.00366943C11.5936 0.085756 8.38642 1.46193 5.96283 3.87859C3.47808 6.35613 2.10965 9.66718 2.10965 13.2017V15.9036C2.10965 17.9928 3.80941 19.6926 5.89882 19.6926C6.33263 19.6926 6.74958 19.6194 7.138 19.4845C8.17726 20.8401 9.51402 21.8962 11.0279 22.5858C7.67305 24.3501 5.59806 27.7654 5.59806 31.5473V40.4469C5.59806 40.8152 5.78452 41.1585 6.09357 41.359L15.9569 47.7589C16.1397 47.8775 16.3447 47.9342 16.5476 47.9342C16.9036 47.9342 17.2526 47.7594 17.4607 47.4387C17.7875 46.9349 17.6441 46.2616 17.1405 45.9349L7.77254 39.8564V31.5473C7.77254 29.0317 8.9439 26.722 10.9062 25.2316C11.5792 27.1845 13.3074 28.6519 15.2182 28.6519H15.3805C17.4558 28.6519 19.1122 26.7734 19.6955 24.6747C19.7603 24.7125 19.8246 24.7513 19.8883 24.7908C20.3985 25.108 21.0689 24.9513 21.3859 24.4414ZM8.58783 9.25009C7.88493 10.4439 7.51337 11.8103 7.51337 13.2017V15.9036C7.51337 16.4187 7.27091 16.8782 6.89405 17.174C6.8617 17.1951 6.83085 17.2176 6.8015 17.2416C6.54369 17.4162 6.23287 17.5181 5.89868 17.5181C5.00837 17.5181 4.28413 16.7939 4.28413 15.9036V13.2015C4.28413 7.16558 9.01145 2.32329 15.0458 2.17733C15.2714 2.17176 15.5031 2.17421 15.7542 2.18386C21.6896 2.41911 26.3391 7.25854 26.3391 13.2015V15.9034C26.3391 16.7938 25.6147 17.518 24.7244 17.518C24.3902 17.518 24.0792 17.4159 23.8213 17.2413C23.7921 17.2175 23.7613 17.1951 23.7291 17.174C23.3523 16.8782 23.1097 16.4185 23.1097 15.9034V13.2015C23.1097 9.36384 20.2508 6.04749 16.4596 5.48743C16.1615 5.44312 15.8586 5.52494 15.6231 5.71276C15.3876 5.90058 15.2404 6.17756 15.2167 6.4779C15.1571 7.23788 15.0193 7.98726 14.806 8.71449H9.52462C9.13961 8.71449 8.78313 8.91821 8.58783 9.25009ZM15.3805 26.4774H15.2182C13.9891 26.4774 12.7827 24.9853 12.7827 23.4649C12.7827 23.3711 12.7706 23.2789 12.7475 23.1904C13.5732 23.4004 14.4331 23.5098 15.3117 23.5098C16.1435 23.5098 16.9586 23.4116 17.7437 23.2232C17.6698 24.8041 16.4733 26.4774 15.3805 26.4774ZM15.3117 21.3353C12.7776 21.3353 10.4389 20.1816 8.90232 18.2108C9.39456 17.5714 9.68771 16.7709 9.68771 15.9034V13.2015C9.68771 12.4006 9.85813 11.6117 10.184 10.889H15.5907C16.0459 10.889 16.4528 10.6056 16.6106 10.1786C16.8824 9.44335 17.0875 8.68486 17.2239 7.91238C19.4007 8.70471 20.9353 10.813 20.9353 13.2015V15.9034C20.9353 16.7709 21.2285 17.5714 21.7209 18.2108C20.1845 20.1817 17.8458 21.3353 15.3117 21.3353Z" fill="#4A5E5E"/>
</svg>
