<svg width="56" height="56" viewBox="0 0 56 56" fill="none" xmlns="http://www.w3.org/2000/svg">
<path d="M28 16.7155C21.8083 16.7155 17.9623 19.8853 17.9623 25.0204C17.9623 25.6039 18.4354 26.077 19.0189 26.077H36.9812C37.5647 26.077 38.0378 25.6039 38.0378 25.0204C38.0378 19.8959 34.1917 16.7155 28 16.7155ZM20.1495 23.9638C20.8468 19.2196 26.2672 18.8287 28 18.8287C29.7328 18.8287 35.1532 19.2196 35.8506 23.9638H20.1495Z" fill="#4A5E5E"/>
<path d="M28 5.62112C25.2281 5.62112 22.9811 7.86812 22.9811 10.64C22.987 13.4095 25.2305 15.653 28 15.6589C30.7719 15.6589 33.0189 13.4119 33.0189 10.64C33.0189 7.86812 30.7719 5.62112 28 5.62112ZM28 13.5457C26.3953 13.5457 25.0944 12.2447 25.0944 10.64C25.0944 9.03527 26.3953 7.73433 28 7.73433C29.6047 7.73433 30.9057 9.03527 30.9057 10.64C30.9057 12.2447 29.6047 13.5457 28 13.5457Z" fill="#4A5E5E"/>
<path d="M10.0377 41.0173C3.84604 41.0173 0 44.1871 0 49.3222C0 49.9058 0.473094 50.3788 1.0566 50.3788H19.0189C19.6024 50.3788 20.0755 49.9058 20.0755 49.3222C20.0755 44.1977 16.2294 41.0173 10.0377 41.0173ZM2.18717 48.2656C2.88453 43.5215 8.29434 43.1305 10.0377 43.1305C11.7811 43.1305 17.1909 43.5215 17.8883 48.2656H2.18717Z" fill="#4A5E5E"/>
<path d="M10.0377 29.923C7.26586 29.923 5.01886 32.17 5.01886 34.9419C5.02467 37.7114 7.26824 39.955 10.0377 39.9608C12.8096 39.9608 15.0566 37.7138 15.0566 34.9419C15.0566 32.17 12.8096 29.923 10.0377 29.923ZM10.0377 37.8476C8.43302 37.8476 7.13207 36.5466 7.13207 34.9419C7.13207 33.3372 8.43302 32.0362 10.0377 32.0362C11.6425 32.0362 12.9434 33.3372 12.9434 34.9419C12.9434 36.5466 11.6425 37.8476 10.0377 37.8476Z" fill="#4A5E5E"/>
<path d="M45.9623 41.0173C39.7706 41.0173 35.9245 44.1871 35.9245 49.3222C35.9245 49.9058 36.3976 50.3788 36.9811 50.3788H54.9434C55.5269 50.3788 56 49.9058 56 49.3222C56 44.1977 52.154 41.0173 45.9623 41.0173ZM38.1117 48.2656C38.8091 43.5215 44.2189 43.1305 45.9623 43.1305C47.7057 43.1305 53.1155 43.5215 53.8128 48.2656H38.1117Z" fill="#4A5E5E"/>
<path d="M45.9623 29.923C43.1904 29.923 40.9434 32.17 40.9434 34.9419C40.9492 37.7114 43.1928 39.955 45.9623 39.9608C48.7341 39.9608 50.9811 37.7138 50.9811 34.9419C50.9811 32.17 48.7341 29.923 45.9623 29.923ZM45.9623 37.8476C44.3575 37.8476 43.0566 36.5466 43.0566 34.9419C43.0566 33.3372 44.3575 32.0362 45.9623 32.0362C47.567 32.0362 48.8679 33.3372 48.8679 34.9419C48.8679 36.5466 47.567 37.8476 45.9623 37.8476Z" fill="#4A5E5E"/>
<path d="M33.4627 39.1894L29.0566 34.7622V28.5283C29.0566 27.9448 28.5835 27.4717 28 27.4717C27.4165 27.4717 26.9434 27.9448 26.9434 28.5283V34.7622L22.5374 39.1683C22.1201 39.5797 22.1154 40.2514 22.5268 40.6687C22.9382 41.0859 23.6099 41.0906 24.0272 40.6792L28 36.6958L31.9728 40.6792C32.4161 41.0588 33.0831 41.0072 33.4627 40.5639C33.8014 40.1684 33.8014 39.585 33.4627 39.1894Z" fill="#4A5E5E"/>
</svg>
